<mxfile host="app.diagrams.net" agent="Mozilla/5.0 (Windows NT 10.0; Win64; x64) AppleWebKit/537.36 (KHTML, like Gecko) Chrome/131.0.0.0 Safari/537.36" version="26.0.2">
  <diagram name="第 1 页" id="dfQf0KPijnO38lHm1auw">
    <mxGraphModel dx="1134" dy="600" grid="1" gridSize="10" guides="1" tooltips="1" connect="1" arrows="1" fold="1" page="1" pageScale="1" pageWidth="2339" pageHeight="3300" math="0" shadow="0">
      <root>
        <mxCell id="0" />
        <mxCell id="1" parent="0" />
        <mxCell id="7XrQwKQ5YSJHxytDMkv--5" value="智能客服" style="swimlane;childLayout=stackLayout;resizeParent=1;resizeParentMax=0;startSize=20;html=1;" vertex="1" parent="1">
          <mxGeometry x="320" y="190" width="760" height="550" as="geometry" />
        </mxCell>
        <mxCell id="7XrQwKQ5YSJHxytDMkv--14" value="yes" style="edgeStyle=orthogonalEdgeStyle;html=1;align=left;verticalAlign=bottom;endArrow=open;endSize=8;strokeColor=#ff0000;rounded=0;" edge="1" source="7XrQwKQ5YSJHxytDMkv--13" parent="7XrQwKQ5YSJHxytDMkv--5" target="7XrQwKQ5YSJHxytDMkv--17">
          <mxGeometry x="-1" relative="1" as="geometry">
            <mxPoint x="320" y="260" as="targetPoint" />
          </mxGeometry>
        </mxCell>
        <mxCell id="7XrQwKQ5YSJHxytDMkv--6" value="企业A（咨询企业）" style="swimlane;startSize=20;html=1;" vertex="1" parent="7XrQwKQ5YSJHxytDMkv--5">
          <mxGeometry y="20" width="370" height="530" as="geometry" />
        </mxCell>
        <mxCell id="7XrQwKQ5YSJHxytDMkv--9" value="" style="ellipse;html=1;shape=startState;fillColor=#000000;strokeColor=#ff0000;" vertex="1" parent="7XrQwKQ5YSJHxytDMkv--6">
          <mxGeometry x="170" y="30" width="30" height="30" as="geometry" />
        </mxCell>
        <mxCell id="7XrQwKQ5YSJHxytDMkv--10" value="" style="edgeStyle=orthogonalEdgeStyle;html=1;verticalAlign=bottom;endArrow=open;endSize=8;strokeColor=#ff0000;rounded=0;entryX=0.5;entryY=0;entryDx=0;entryDy=0;" edge="1" source="7XrQwKQ5YSJHxytDMkv--9" parent="7XrQwKQ5YSJHxytDMkv--6" target="7XrQwKQ5YSJHxytDMkv--11">
          <mxGeometry relative="1" as="geometry">
            <mxPoint x="185" y="120" as="targetPoint" />
          </mxGeometry>
        </mxCell>
        <mxCell id="7XrQwKQ5YSJHxytDMkv--11" value="要了解B企业的情况，发送询问消息" style="rounded=1;whiteSpace=wrap;html=1;arcSize=40;fontColor=#000000;fillColor=#ffffc0;strokeColor=#ff0000;" vertex="1" parent="7XrQwKQ5YSJHxytDMkv--6">
          <mxGeometry x="125" y="120" width="120" height="40" as="geometry" />
        </mxCell>
        <mxCell id="7XrQwKQ5YSJHxytDMkv--12" value="" style="edgeStyle=orthogonalEdgeStyle;html=1;verticalAlign=bottom;endArrow=open;endSize=8;strokeColor=#ff0000;rounded=0;entryX=0.5;entryY=0;entryDx=0;entryDy=0;" edge="1" source="7XrQwKQ5YSJHxytDMkv--11" parent="7XrQwKQ5YSJHxytDMkv--6" target="7XrQwKQ5YSJHxytDMkv--13">
          <mxGeometry relative="1" as="geometry">
            <mxPoint x="185" y="220" as="targetPoint" />
          </mxGeometry>
        </mxCell>
        <mxCell id="7XrQwKQ5YSJHxytDMkv--13" value="对方在线" style="rhombus;whiteSpace=wrap;html=1;fontColor=#000000;fillColor=#ffffc0;strokeColor=#ff0000;" vertex="1" parent="7XrQwKQ5YSJHxytDMkv--6">
          <mxGeometry x="135" y="220" width="100" height="40" as="geometry" />
        </mxCell>
        <mxCell id="7XrQwKQ5YSJHxytDMkv--7" value="企业B（被咨询企业）" style="swimlane;startSize=20;html=1;" vertex="1" parent="7XrQwKQ5YSJHxytDMkv--5">
          <mxGeometry x="370" y="20" width="390" height="530" as="geometry" />
        </mxCell>
        <mxCell id="7XrQwKQ5YSJHxytDMkv--21" value="" style="edgeStyle=orthogonalEdgeStyle;rounded=0;orthogonalLoop=1;jettySize=auto;html=1;entryX=0;entryY=0.5;entryDx=0;entryDy=0;strokeColor=#FF0000;" edge="1" parent="7XrQwKQ5YSJHxytDMkv--7" source="7XrQwKQ5YSJHxytDMkv--17" target="7XrQwKQ5YSJHxytDMkv--20">
          <mxGeometry relative="1" as="geometry" />
        </mxCell>
        <mxCell id="7XrQwKQ5YSJHxytDMkv--17" value="解答对方问题，讨论合作细节" style="rounded=1;whiteSpace=wrap;html=1;arcSize=40;fontColor=#000000;fillColor=#ffffc0;strokeColor=#ff0000;" vertex="1" parent="7XrQwKQ5YSJHxytDMkv--7">
          <mxGeometry x="90" y="225" width="170" height="30" as="geometry" />
        </mxCell>
        <mxCell id="7XrQwKQ5YSJHxytDMkv--18" value="智能助手读取B企业的基本信息来回答A的问题" style="rounded=1;whiteSpace=wrap;html=1;arcSize=40;fontColor=#000000;fillColor=#ffffc0;strokeColor=#ff0000;" vertex="1" parent="7XrQwKQ5YSJHxytDMkv--7">
          <mxGeometry x="100" y="320" width="150" height="40" as="geometry" />
        </mxCell>
        <mxCell id="7XrQwKQ5YSJHxytDMkv--19" value="" style="edgeStyle=orthogonalEdgeStyle;html=1;verticalAlign=bottom;endArrow=open;endSize=8;strokeColor=#ff0000;rounded=0;entryX=0.5;entryY=0;entryDx=0;entryDy=0;" edge="1" source="7XrQwKQ5YSJHxytDMkv--18" parent="7XrQwKQ5YSJHxytDMkv--7" target="7XrQwKQ5YSJHxytDMkv--22">
          <mxGeometry relative="1" as="geometry">
            <mxPoint x="175" y="420" as="targetPoint" />
          </mxGeometry>
        </mxCell>
        <mxCell id="7XrQwKQ5YSJHxytDMkv--20" value="" style="ellipse;html=1;shape=endState;fillColor=#000000;strokeColor=#ff0000;" vertex="1" parent="7XrQwKQ5YSJHxytDMkv--7">
          <mxGeometry x="300" y="225" width="30" height="30" as="geometry" />
        </mxCell>
        <mxCell id="7XrQwKQ5YSJHxytDMkv--22" value="" style="ellipse;html=1;shape=endState;fillColor=#000000;strokeColor=#ff0000;" vertex="1" parent="7XrQwKQ5YSJHxytDMkv--7">
          <mxGeometry x="160" y="420" width="30" height="30" as="geometry" />
        </mxCell>
        <mxCell id="7XrQwKQ5YSJHxytDMkv--15" value="no" style="edgeStyle=orthogonalEdgeStyle;html=1;align=left;verticalAlign=top;endArrow=open;endSize=8;strokeColor=#ff0000;rounded=0;entryX=0;entryY=0.5;entryDx=0;entryDy=0;" edge="1" source="7XrQwKQ5YSJHxytDMkv--13" parent="7XrQwKQ5YSJHxytDMkv--5" target="7XrQwKQ5YSJHxytDMkv--18">
          <mxGeometry x="-1" relative="1" as="geometry">
            <mxPoint x="185" y="400" as="targetPoint" />
            <Array as="points">
              <mxPoint x="185" y="360" />
            </Array>
          </mxGeometry>
        </mxCell>
      </root>
    </mxGraphModel>
  </diagram>
</mxfile>
